<svg xmlns="http://www.w3.org/2000/svg" xmlns:xlink="http://www.w3.org/1999/xlink" viewBox="0 0 1120.78 736.1"><defs><style>.cls-1{isolation:isolate;}.cls-2,.cls-6{fill:#fff;}.cls-3,.cls-8{fill:none;}.cls-3{stroke:#35404e;}.cls-3,.cls-6,.cls-8{stroke-width:2px;}.cls-4{fill:#35404e;}.cls-5,.cls-7{fill:#f5f1ea;}.cls-6,.cls-7,.cls-8{stroke:#3e3e3e;}.cls-7{stroke-miterlimit:10;}.cls-9{fill:#28c6c7;}.cls-10,.cls-11{opacity:0.6;mix-blend-mode:multiply;}.cls-10{fill:url(#radial-gradient);}.cls-11{fill:url(#radial-gradient-2);}</style><radialGradient id="radial-gradient" cx="160.87" cy="33177.09" r="18.9" gradientTransform="translate(-3.22 -5820.63) scale(1 0.19)" gradientUnits="userSpaceOnUse"><stop offset="0" stop-color="#fff"/><stop offset="0" stop-opacity="0.8"/><stop offset="0.09" stop-color="#2a2a2a" stop-opacity="0.83"/><stop offset="0.23" stop-color="#626262" stop-opacity="0.88"/><stop offset="0.37" stop-color="#929292" stop-opacity="0.91"/><stop offset="0.5" stop-color="#b9b9b9" stop-opacity="0.95"/><stop offset="0.63" stop-color="#d8d8d8" stop-opacity="0.97"/><stop offset="0.76" stop-color="#ededed" stop-opacity="0.99"/><stop offset="0.89" stop-color="#fbfbfb"/><stop offset="1" stop-color="#fff"/></radialGradient><radialGradient id="radial-gradient-2" cx="633.41" cy="32575.64" r="26.39" xlink:href="#radial-gradient"/></defs><title>ipad-iphoneHB</title><g class="cls-1"><g id="Layer_1" data-name="Layer 1"><g id="Components"><g id="Header-_14" data-name="Header-#14"><g id="Image"><g id="Group"><g id="Images-_-Browser-Frame" data-name="Images-/-Browser-Frame"><g id="Browser"><g id="Rectangle"><path id="path-1" class="cls-2" d="M180,15a4,4,0,0,1,4-4h936a4,4,0,0,1,4,4V663H180Z" transform="translate(-3.22 -11)"/><path class="cls-3" d="M181,662h942V15a3,3,0,0,0-3-3H184a3,3,0,0,0-3,3Z" transform="translate(-3.22 -11)"/></g><path id="Rectangle-2" data-name="Rectangle" class="cls-4" d="M180,41a1,1,0,0,1,1-1h942a1,1,0,0,1,1,1v1H180Z" transform="translate(-3.22 -11)"/><g id="Circles"><circle id="Oval" class="cls-4" cx="195.78" cy="16" r="4"/><circle id="Oval-2" data-name="Oval" class="cls-4" cx="209.78" cy="16" r="4"/><circle id="Oval-3" data-name="Oval" class="cls-4" cx="223.78" cy="16" r="4"/></g></g><g id="Screen"><g id="Mask"><rect id="path-2" class="cls-5" x="178.78" y="30" width="940" height="620"/></g></g></g><g id="Images-_-iPhone-_-iPhone-330px" data-name="Images-/-iPhone-/-iPhone-330px"><g id="iPhone"><path id="Shape" class="cls-6" d="M332.22,710.1a35.9,35.9,0,0,1-36,36h-251c-20.45,0-37-16.05-37-36v-598c0-19.82,16.55-36,37-36h251a36,36,0,0,1,36,36v598Z" transform="translate(-3.22 -11)"/><polygon id="Shape-2" data-name="Shape" class="cls-7" points="317 140.1 315.99 140.1 21.01 140.1 20 140.1 20 141.11 20 656.1 20 657.1 21.01 657.1 315.99 657.1 317 657.1 317 656.1 317 141.11 317 140.1"/><path id="Shape-3" data-name="Shape" class="cls-8" d="M195.22,118.1a2,2,0,0,1-2,2h-45a2,2,0,0,1,0-4h45a2,2,0,0,1,2,2Z" transform="translate(-3.22 -11)"/><path id="Oval-4" data-name="Oval" class="cls-8" d="M193.22,704.6a23.5,23.5,0,1,1-23.5-23.5,23.5,23.5,0,0,1,23.5,23.5Z" transform="translate(-3.22 -11)"/><path id="Oval-5" data-name="Oval" class="cls-8" d="M175.22,98.1a5,5,0,1,1-5-5,5,5,0,0,1,5,5Z" transform="translate(-3.22 -11)"/><path id="Oval-6" data-name="Oval" class="cls-8" d="M123.22,118.1a5,5,0,1,1-5-5,5,5,0,0,1,5,5Z" transform="translate(-3.22 -11)"/><path id="Shape-4" data-name="Shape" class="cls-8" d="M335.22,221.1h-3v47h3a.89.89,0,0,0,1-1v-45a.89.89,0,0,0-1-1Z" transform="translate(-3.22 -11)"/><path id="Shape-5" data-name="Shape" class="cls-8" d="M8.22,160.1h-1a1.16,1.16,0,0,0-1,1v20a1.15,1.15,0,0,0,1,1h1v-22Z" transform="translate(-3.22 -11)"/><path id="Shape-6" data-name="Shape" class="cls-8" d="M4.89,283.1c-.36,0-.67.44-.67,1v45c0,.57.31,1,.67,1H8.22v-47Z" transform="translate(-3.22 -11)"/><path id="Shape-7" data-name="Shape" class="cls-8" d="M4.89,221.1c-.36,0-.67.44-.67,1v45c0,.57.31,1,.67,1H8.22v-47Z" transform="translate(-3.22 -11)"/></g></g></g><path class="cls-4" d="M75.27,434.81h5.4v9.37h9.57v-9.37h5.39v23.93H90.24v-9.37H80.67v9.37h-5.4Z" transform="translate(-3.22 -11)"/><path class="cls-4" d="M98.9,450.31a8.37,8.37,0,0,1,8.69-8.69c4.28,0,8.12,2.8,8.12,8.12a10.82,10.82,0,0,1-.1,1.48H103.78a3.52,3.52,0,0,0,3.68,3.14,3.86,3.86,0,0,0,3.6-2.12l4,2.73a8.88,8.88,0,0,1-7.62,4A8.58,8.58,0,0,1,98.9,450.31Zm4.92-2.05h6.87c-.27-1.79-1.75-2.56-3.4-2.56A3.36,3.36,0,0,0,103.82,448.26Z" transform="translate(-3.22 -11)"/><path class="cls-4" d="M129.63,457.76a5.87,5.87,0,0,1-3.71,1.25c-5,0-8.15-4.08-8.15-8.7s3.16-8.69,8.15-8.69a5.89,5.89,0,0,1,3.71,1.28v-1h5.09v16.85h-5.09Zm0-4.78v-5.29a3.44,3.44,0,0,0-2.87-1.42,4,4,0,0,0,0,8.09A3.4,3.4,0,0,0,129.63,453Z" transform="translate(-3.22 -11)"/><path class="cls-4" d="M138.69,434.81h5.09v23.93h-5.09Z" transform="translate(-3.22 -11)"/><path class="cls-4" d="M145.36,441.89h3.31v-2.53l5.09-2.53v5.06h5.32L158,446.34h-4.21v5.76c0,1.42.57,2,2,2h2.76v4.65h-4.65a4.81,4.81,0,0,1-5.15-5.19v-7.21h-2.19Z" transform="translate(-3.22 -11)"/><path class="cls-4" d="M161.64,434.81h5.09v8.12a6.05,6.05,0,0,1,3.87-1.31c4.76,0,7.35,3.17,7.35,7.72v9.4h-5.09v-8.49c0-2.26-.87-4-3.1-4a4.3,4.3,0,0,0-3,1.45v11h-5.09Z" transform="translate(-3.22 -11)"/><path class="cls-4" d="M182,434.81h9a7.14,7.14,0,0,1,7.11,7.11,5.63,5.63,0,0,1-1.69,4.11,6.17,6.17,0,0,1,3.37,5.6,7.14,7.14,0,0,1-7.24,7.11H182Zm8.39,9.67a2.37,2.37,0,0,0,2.49-2.35,2.4,2.4,0,0,0-2.49-2.4h-3v4.75Zm1.65,9.31a2.38,2.38,0,0,0,2.49-2.36,2.4,2.4,0,0,0-2.49-2.4h-4.65v4.76Z" transform="translate(-3.22 -11)"/><path class="cls-4" d="M213.64,457.76a5.87,5.87,0,0,1-3.71,1.25c-5,0-8.16-4.08-8.16-8.7s3.17-8.69,8.16-8.69a5.89,5.89,0,0,1,3.71,1.28v-1h5.09v16.85h-5.09Zm0-4.78v-5.29a3.44,3.44,0,0,0-2.87-1.42,4,4,0,0,0,0,8.09A3.4,3.4,0,0,0,213.64,453Z" transform="translate(-3.22 -11)"/><path class="cls-4" d="M222.7,441.89h5.09v1a6.05,6.05,0,0,1,3.87-1.31c4.76,0,7.35,3.17,7.35,7.72v9.4h-5.09v-8.49c0-2.26-.87-4-3.1-4a4.3,4.3,0,0,0-3,1.45v11H222.7Z" transform="translate(-3.22 -11)"/><path class="cls-4" d="M242.82,434.81h5.09v14.76l5.49-7.68h5.86l-5.73,8,6.61,8.86h-6l-6.23-8.39v8.39h-5.09Z" transform="translate(-3.22 -11)"/><path class="cls-9" d="M172.45,360.1a14.69,14.69,0,0,0-13.35,8,13.49,13.49,0,0,0-9.81-4,17,17,0,0,0-14.43,8.06,14.2,14.2,0,0,0-2.54,8.12c0,.1,0,.2,0,.3s0,.32,0,.48v.25h0c0,26.14,28.46,37.84,28.46,37.84s28.45-10.68,28.45-37.84h.15V377.4A17,17,0,0,0,172.45,360.1Zm-17,29.6H144.06v-7.16a5.73,5.73,0,0,1,5.71-6,5.67,5.67,0,0,1,5.63,6Zm22.2,0H166.26V378.6a5.73,5.73,0,0,1,5.71-6,5.68,5.68,0,0,1,5.63,6Z" transform="translate(-3.22 -11)"/><ellipse class="cls-10" cx="157.65" cy="412.57" rx="18.9" ry="3.55"/></g></g></g><path class="cls-4" d="M513.87,326.27h7.53v13.09h13.37V326.27h7.53v33.42h-7.53V346.6H521.4v13.09h-7.53Z" transform="translate(-3.22 -11)"/><path class="cls-4" d="M546.86,347.92c0-6.92,4.9-12.14,12.14-12.14,6,0,11.35,3.91,11.35,11.34a14.84,14.84,0,0,1-.15,2.07H553.68a4.91,4.91,0,0,0,5.13,4.38,5.38,5.38,0,0,0,5-3l5.65,3.82a12.38,12.38,0,0,1-10.64,5.64A12,12,0,0,1,546.86,347.92Zm6.87-2.87h9.6c-.37-2.49-2.44-3.58-4.75-3.58A4.71,4.71,0,0,0,553.73,345.05Z" transform="translate(-3.22 -11)"/><path class="cls-4" d="M589.78,358.32a8.18,8.18,0,0,1-5.18,1.74c-7,0-11.39-5.69-11.39-12.14s4.43-12.14,11.39-12.14a8.21,8.21,0,0,1,5.18,1.79v-1.41h7.11v23.53h-7.11Zm0-6.68v-7.39a4.79,4.79,0,0,0-4-2c-3.39,0-5.41,2.55-5.41,5.65s2,5.65,5.41,5.65A4.75,4.75,0,0,0,589.78,351.64Z" transform="translate(-3.22 -11)"/><path class="cls-4" d="M602.44,326.27h7.11v33.42h-7.11Z" transform="translate(-3.22 -11)"/><path class="cls-4" d="M611.76,336.16h4.61v-3.53l7.11-3.53v7.06h7.43l-1.55,6.21h-5.88v8.05c0,2,.8,2.77,2.73,2.77h3.86v6.5h-6.5c-4.42,0-7.2-2.78-7.2-7.25V342.37h-3.06Z" transform="translate(-3.22 -11)"/><path class="cls-4" d="M634.49,326.27h7.1v11.34a8.53,8.53,0,0,1,5.42-1.83c6.63,0,10.26,4.42,10.26,10.78v13.13h-7.11V347.83c0-3.16-1.22-5.56-4.33-5.56a6,6,0,0,0-4.24,2v15.39h-7.1Z" transform="translate(-3.22 -11)"/><path class="cls-4" d="M663,326.27h12.57a10,10,0,0,1,9.93,9.93,7.88,7.88,0,0,1-2.36,5.74,8.6,8.6,0,0,1,4.71,7.82,10,10,0,0,1-10.12,9.93H663Zm11.72,13.51a3.32,3.32,0,0,0,3.48-3.29,3.36,3.36,0,0,0-3.48-3.35h-4.19v6.64Zm2.3,13a3.33,3.33,0,0,0,3.49-3.3,3.36,3.36,0,0,0-3.49-3.34h-6.49v6.64Z" transform="translate(-3.22 -11)"/><path class="cls-4" d="M707.1,358.32a8.15,8.15,0,0,1-5.17,1.74c-7,0-11.39-5.69-11.39-12.14s4.42-12.14,11.39-12.14a8.19,8.19,0,0,1,5.17,1.79v-1.41h7.11v23.53H707.1Zm0-6.68v-7.39a4.78,4.78,0,0,0-4-2c-3.39,0-5.41,2.55-5.41,5.65s2,5.65,5.41,5.65A4.73,4.73,0,0,0,707.1,351.64Z" transform="translate(-3.22 -11)"/><path class="cls-4" d="M719.76,336.16h7.11v1.45a8.48,8.48,0,0,1,5.41-1.83c6.64,0,10.26,4.42,10.26,10.78v13.13h-7.11V347.83c0-3.16-1.22-5.56-4.33-5.56a6,6,0,0,0-4.23,2v15.39h-7.11Z" transform="translate(-3.22 -11)"/><path class="cls-4" d="M747.86,326.27H755v20.62l7.67-10.73h8.19l-8,11.15,9.23,12.38h-8.38L755,348v11.72h-7.1Z" transform="translate(-3.22 -11)"/><path class="cls-9" d="M649.58,221.94a20.52,20.52,0,0,0-18.64,11.23,18.88,18.88,0,0,0-13.7-5.62,23.74,23.74,0,0,0-20.15,11.27,19.83,19.83,0,0,0-3.55,11.33c0,.14,0,.28,0,.42s0,.45,0,.68v.34h.06c0,36.5,39.74,52.85,39.74,52.85s39.74-14.92,39.74-52.85h.2v-5.51A23.8,23.8,0,0,0,649.58,221.94Zm-23.81,41.33H609.93v-10a8,8,0,0,1,8-8.31c4.38,0,7.86,3.48,7.86,8.31Zm31,0H640.93v-15.5a8,8,0,0,1,8-8.31c4.38,0,7.86,3.48,7.86,8.31Z" transform="translate(-3.22 -11)"/><ellipse class="cls-11" cx="630.19" cy="299.57" rx="26.39" ry="4.96"/></g></g></svg>